<?xml version="1.0" encoding="utf-8"?>
<!-- Generator: Adobe Illustrator 27.5.0, SVG Export Plug-In . SVG Version: 6.00 Build 0)  -->
<svg version="1.1" xmlns="http://www.w3.org/2000/svg" xmlns:xlink="http://www.w3.org/1999/xlink" x="0px" y="0px"
	 viewBox="0 0 841.89 841.89" style="enable-background:new 0 0 841.89 841.89;" xml:space="preserve">
<g id="bg">
	<rect x="0.001" y="420.946" style="fill:#E9F1F2;" width="420.945" height="420.944"/>
	<rect x="420.945" y="420.946" style="fill:#DAE5E5;" width="420.945" height="420.944"/>
	<rect x="420.945" style="fill:#E9F1F2;" width="420.945" height="420.945"/>
	<rect style="fill:#DAE5E5;" width="420.945" height="420.945"/>
</g>
<g id="graphics">
	
		<line style="fill:none;stroke:#2F545C;stroke-width:6.2941;stroke-linecap:round;stroke-linejoin:round;stroke-miterlimit:10;" x1="56.732" y1="285.764" x2="361.367" y2="285.764"/>
	
		<line style="fill:none;stroke:#2F545C;stroke-width:6.2941;stroke-linecap:round;stroke-linejoin:round;stroke-miterlimit:10;" x1="479.607" y1="707.644" x2="784.242" y2="707.644"/>
	
		<line style="fill:none;stroke:#2F545C;stroke-width:6.2941;stroke-linecap:round;stroke-linejoin:round;stroke-miterlimit:10;" x1="479.608" y1="285.815" x2="784.243" y2="285.815"/>
	
		<line style="fill:none;stroke:#2F545C;stroke-width:6.2941;stroke-linecap:round;stroke-linejoin:round;stroke-miterlimit:10;" x1="56.732" y1="708.123" x2="361.367" y2="708.123"/>
	<g>
		
			<path style="fill:#DFDFDF;stroke:#2F545C;stroke-width:5.2753;stroke-linecap:round;stroke-linejoin:round;stroke-miterlimit:10;" d="
			M364.384,252.134c2.602-2.171,4.142-5.379,4.215-8.762l0.716-33.301c0.069-3.18-1.922-6.061-4.921-7.121l-85.741-30.361
			c-3.332-1.182-6.846-1.782-10.381-1.782h-91.719c-3.532,0-7.037,0.662-10.32,1.95l-37.434,14.697l-84.026,37.709
			c-2.642,1.188-3.737,4.354-2.386,6.92l14.5,27.604c1.526,2.902,4.552,4.733,7.829,4.733h20.522c0.587,0,1.071-0.553,0.789-1.07
			c-0.383-0.721-0.474-1.549-0.673-2.346c-1.001-4.029-1.212-8.697-1.212-9.778c0-22.409,18.165-40.575,40.568-40.575
			c26.477,0,45.759,24.895,39.338,50.426c-0.186,0.745-0.277,1.518-0.16,2.277c0.091,0.603,0.6,1.066,1.212,1.066h96.406
			c0.608,0,1.116-0.467,1.212-1.07c0.101-0.684,0.069-1.384-0.105-2.055c-0.831-3.221-1.298-6.587-1.298-10.069
			c0-22.409,18.165-40.575,40.575-40.575c22.408,0,40.574,18.166,40.574,40.575c0,3.483-0.469,6.845-1.298,10.069
			c-0.177,0.671-0.206,1.371-0.104,2.055c0.093,0.604,0.6,1.07,1.216,1.07h3.142c2.72,0,5.364-0.959,7.454-2.703L364.384,252.134z"
			/>
		<g>
			<path style="opacity:0.21;" d="M64.596,250.122l-14.391-27.398l-5.434,2.439c-2.645,1.188-3.736,4.354-2.385,6.92l14.498,27.604
				c1.526,2.902,4.552,4.733,7.829,4.733h20.524c0.585,0,1.067-0.553,0.789-1.07c-0.387-0.721-0.478-1.549-0.677-2.346
				c-0.516-2.075-0.817-4.311-0.992-6.148H72.422C69.146,254.855,66.119,253.024,64.596,250.122z"/>
			<path style="opacity:0.21;" d="M164.044,261.075c-0.184,0.745-0.274,1.518-0.157,2.277c0.092,0.603,0.599,1.066,1.212,1.066
				h96.405c0.607,0,1.119-0.467,1.213-1.07c0.103-0.684,0.067-1.384-0.105-2.055c-0.537-2.086-0.903-4.239-1.108-6.439h-96.405
				C164.906,256.915,164.567,258.993,164.044,261.075z"/>
		</g>
		<g>
			<path style="opacity:0.21;" d="M364.822,203.436l-85.669-29.199c-3.331-1.182-6.772-2.054-10.31-2.054l83.727,35.993
				c2.998,1.061,4.989,3.944,4.92,7.127l-1.047,43.116l6.112-5.09c2.601-2.169,4.143-5.378,4.217-8.763l1.753-34.785
				C368.594,206.601,367.821,204.499,364.822,203.436z"/>
		</g>
		
			<path style="fill:none;stroke:#2F545C;stroke-width:5.2753;stroke-linecap:round;stroke-linejoin:round;stroke-miterlimit:10;" d="
			M364.384,252.134c2.602-2.171,4.142-5.379,4.215-8.762l0.716-33.301c0.069-3.18-1.922-6.061-4.921-7.121l-85.741-30.361
			c-3.332-1.182-6.846-1.782-10.381-1.782h-91.719c-3.532,0-7.037,0.662-10.32,1.95l-37.434,14.697l-84.026,37.709
			c-2.642,1.188-3.737,4.354-2.386,6.92l14.5,27.604c1.526,2.902,4.552,4.733,7.829,4.733h20.522c0.587,0,1.071-0.553,0.789-1.07
			c-0.383-0.721-0.474-1.549-0.673-2.346c-1.001-4.029-1.212-8.697-1.212-9.778c0-22.409,18.165-40.575,40.568-40.575
			c26.477,0,45.759,24.895,39.338,50.426c-0.186,0.745-0.277,1.518-0.16,2.277c0.091,0.603,0.6,1.066,1.212,1.066h96.406
			c0.608,0,1.116-0.467,1.212-1.07c0.101-0.684,0.069-1.384-0.105-2.055c-0.831-3.221-1.298-6.587-1.298-10.069
			c0-22.409,18.165-40.575,40.575-40.575c22.408,0,40.574,18.166,40.574,40.575c0,3.483-0.469,6.845-1.298,10.069
			c-0.177,0.671-0.206,1.371-0.104,2.055c0.093,0.604,0.6,1.07,1.216,1.07h3.142c2.72,0,5.364-0.959,7.454-2.703L364.384,252.134z"
			/>
		
			<path style="fill:#BEBEC0;stroke:#2F545C;stroke-width:1.3188;stroke-linecap:round;stroke-linejoin:round;stroke-miterlimit:10;" d="
			M337.103,158.708c-2.971-1.014-6.271,0.114-7.998,2.736l-12.768,19.351c-1.479,2.243-0.413,5.271,2.147,6.085l25.839,8.264
			c2.757,0.882,5.694-0.742,6.411-3.548l5.313-20.795c0.747-2.924-0.88-5.931-3.733-6.903L337.103,158.708z"/>
		
			<path style="fill:#BEBEC0;stroke:#2F545C;stroke-width:1.3188;stroke-linecap:round;stroke-linejoin:round;stroke-miterlimit:10;" d="
			M337.103,160.212c-2.971-1.016-6.271,0.112-7.998,2.734l-12.768,19.352c-1.479,2.242-0.413,5.27,2.147,6.086l25.839,8.26
			c2.757,0.884,5.694-0.741,6.411-3.549l5.313-20.794c0.747-2.921-0.88-5.929-3.733-6.899L337.103,160.212z"/>
		<path style="fill:#2F545C;" d="M355.797,166.995c-0.638-1.409-1.814-2.564-3.381-3.098l-15.209-5.19
			c-2.972-1.014-6.273,0.114-7.996,2.736l-0.495,0.752l-3.877,5.876l1.017,2.372c1.301,3.035,4.128,5.172,7.404,5.596l20.86,2.701
			l2.03-7.94C356.488,169.48,356.32,168.153,355.797,166.995z"/>
		
			<path style="fill:#ADADAD;stroke:#2F545C;stroke-width:1.3188;stroke-linecap:round;stroke-linejoin:round;stroke-miterlimit:10;" d="
			M84.881,259.846c-0.92-2.636-1.508-4.829-4.299-4.829H53.881c-2.38,0-3.871,2.568-2.686,4.635l4.111,7.193
			c1.638,2.858,4.703,4.635,7.998,4.635h21.685c2.152,0,3.636-2.43,2.631-4.324C86.471,264.999,85.646,262.056,84.881,259.846z"/>
		
			<path style="fill:none;stroke:#2F545C;stroke-width:2.6377;stroke-linecap:round;stroke-linejoin:round;stroke-miterlimit:10;" d="
			M275.472,180.419l24.902,9.976c0.899,0.36,1.544,1.139,1.726,2.086c0.185,0.946-0.121,1.912-0.813,2.578
			c-1.484,1.43-3.471,2.252-5.594,2.319c-14.064,0.445-25.807,5.535-34.899,15.126c-10.06,10.615-12.052,26.544-12.345,35.093
			c-0.117,3.492-2.859,6.229-6.25,6.229h-55.674"/>
		
			<path style="fill:none;stroke:#2F545C;stroke-width:2.6377;stroke-linecap:round;stroke-linejoin:round;stroke-miterlimit:10;" d="
			M136.543,204.371c0.6-2.87,2.423-5.311,5-6.694l31.107-16.676c3.22-1.725,6.847-2.639,10.5-2.639"/>
		
			<line style="fill:none;stroke:#2F545C;stroke-width:2.6377;stroke-linecap:round;stroke-linejoin:round;stroke-miterlimit:10;" x1="189.265" y1="178.371" x2="208.023" y2="178.371"/>
		<path style="fill:#375F66;" d="M268.877,187.157c-2.932-1.162-6.065-1.761-9.222-1.761h-73.324c-3.132,0-6.225,0.794-8.972,2.3
			l-24.742,13.573c-0.335,0.185-0.672,0.466-1.002,0.798c-1.817,1.838-0.638,4.769,1.713,5.843l17.702,8.091
			c2.861,1.31,5.979,1.988,9.122,1.988h57.59c2.984,0,5.667-1.707,7.399-4.135c2.738-3.836,7.645-9.578,14.797-13.848
			c2.073-1.236,9.184-4.184,12.606-5.581c1.225-0.501,2.27-1.368,2.991-2.477c0.578-0.89,0.2-2.08-0.786-2.47L268.877,187.157z"/>
		<g>
			<path style="fill:#DFDFDF;" d="M369.353,231.977l-6.176-0.677c-1.579-0.172-2.978-0.963-3.936-2.225
				c-0.96-1.262-1.348-2.821-1.091-4.391l0.154-0.961c0.577-3.507,2.795-6.588,5.934-8.244l5.265-2.775
				c0.097-0.051,0.202-0.076,0.308-0.076c0.12,0,0.24,0.033,0.347,0.098c0.198,0.123,0.317,0.342,0.313,0.576l-0.385,18.033
				c-0.004,0.185-0.085,0.359-0.225,0.482c-0.12,0.105-0.275,0.163-0.434,0.163C369.402,231.98,369.378,231.98,369.353,231.977z"/>
			<g>
				<path style="fill:#2F545C;" d="M369.81,213.287h0.005 M369.81,213.287l-0.385,18.034l-6.176-0.677
					c-2.893-0.316-4.918-2.984-4.449-5.854l0.155-0.963c0.545-3.313,2.622-6.199,5.59-7.766L369.81,213.287 M369.815,211.968h-0.005
					c-0.231,0-0.449,0.061-0.638,0.164l-5.242,2.764c-3.32,1.753-5.666,5.012-6.276,8.719l-0.155,0.967
					c-0.286,1.746,0.147,3.485,1.217,4.893c1.07,1.407,2.63,2.288,4.391,2.482l6.176,0.676c0.048,0.006,0.096,0.008,0.144,0.008
					c0.318,0,0.628-0.115,0.87-0.327c0.277-0.243,0.44-0.593,0.448-0.963l0.383-17.952c0.004-0.037,0.005-0.073,0.005-0.11
					C371.132,212.559,370.544,211.968,369.815,211.968L369.815,211.968z"/>
			</g>
		</g>
		
			<path style="fill:#BEBEC0;stroke:#2F545C;stroke-width:1.3188;stroke-linecap:round;stroke-linejoin:round;stroke-miterlimit:10;" d="
			M46.219,224.517l5.526,6.463c2.903,1.572,6.444,1.492,9.266-0.219l27.369-16.559c2.763-1.672,4.729-7.888,5.419-11.04l0,0
			L46.219,224.517z"/>
		<g>
			<path style="fill:#B7B7BC;" d="M124.401,280.854c-16.304,0-29.567-13.265-29.567-29.568c0-16.305,13.264-29.57,29.567-29.57
				c16.307,0,29.573,13.266,29.573,29.57C153.975,267.59,140.708,280.854,124.401,280.854z"/>
			<path style="fill:#2F545C;" d="M124.401,224.354c14.853,0,26.936,12.082,26.936,26.933c0,14.85-12.083,26.93-26.936,26.93
				c-14.849,0-26.93-12.08-26.93-26.93C97.472,236.436,109.553,224.354,124.401,224.354 M124.401,219.078
				c-17.784,0-32.205,14.421-32.205,32.208c0,17.788,14.421,32.205,32.205,32.205c17.788,0,32.211-14.417,32.211-32.205
				C156.612,233.499,142.189,219.078,124.401,219.078L124.401,219.078z"/>
		</g>
		
			<path style="fill:#DFDFDF;stroke:#2F545C;stroke-width:2.6377;stroke-linecap:round;stroke-linejoin:round;stroke-miterlimit:10;" d="
			M141.997,251.286c0,9.715-7.875,17.592-17.594,17.592c-9.71,0-17.592-7.877-17.592-17.592c0-9.716,7.882-17.596,17.592-17.596
			C134.122,233.691,141.997,241.57,141.997,251.286z"/>
		
			<path style="fill:#B7B7BC;stroke:#2F545C;stroke-width:1.3188;stroke-linecap:round;stroke-linejoin:round;stroke-miterlimit:10;" d="
			M134.572,251.286c0,5.615-4.551,10.168-10.169,10.168c-5.616,0-10.167-4.553-10.167-10.168c0-5.615,4.551-10.17,10.167-10.17
			C130.021,241.116,134.572,245.671,134.572,251.286z"/>
		<g>
			<g>
				<path style="fill:#B7B7BC;" d="M302.271,280.854c-16.304,0-29.567-13.265-29.567-29.568c0-16.305,13.264-29.57,29.567-29.57
					c16.306,0,29.571,13.266,29.571,29.57C331.842,267.59,318.576,280.854,302.271,280.854z"/>
				<path style="fill:#2F545C;" d="M302.271,224.354c14.852,0,26.934,12.082,26.934,26.933c0,14.85-12.082,26.93-26.934,26.93
					c-14.849,0-26.93-12.08-26.93-26.93C275.341,236.436,287.422,224.354,302.271,224.354 M302.271,219.078
					c-17.788,0-32.205,14.421-32.205,32.208c0,17.788,14.417,32.205,32.205,32.205c17.787,0,32.209-14.417,32.209-32.205
					C334.479,233.499,320.058,219.078,302.271,219.078L302.271,219.078z"/>
			</g>
			
				<path style="fill:#DFDFDF;stroke:#2F545C;stroke-width:2.6377;stroke-linecap:round;stroke-linejoin:round;stroke-miterlimit:10;" d="
				M319.866,251.286c0,9.715-7.881,17.592-17.596,17.592c-9.716,0-17.591-7.877-17.591-17.592c0-9.716,7.875-17.596,17.591-17.596
				C311.985,233.691,319.866,241.57,319.866,251.286z"/>
			
				<path style="fill:#B7B7BC;stroke:#2F545C;stroke-width:1.3188;stroke-linecap:round;stroke-linejoin:round;stroke-miterlimit:10;" d="
				M312.441,251.286c0,5.615-4.557,10.168-10.171,10.168c-5.616,0-10.167-4.553-10.167-10.168c0-5.615,4.551-10.17,10.167-10.17
				C307.885,241.116,312.441,245.671,312.441,251.286z"/>
		</g>
		
			<path style="fill:#ADADAD;stroke:#2F545C;stroke-width:1.3188;stroke-linecap:round;stroke-linejoin:round;stroke-miterlimit:10;" d="
			M347.163,238.974c-2.802,0-4.893,2.502-4.596,5.286c0.602,5.669,0.453,11.132-1.127,16.19c-0.737,2.357,0.786,4.911,3.261,4.911
			h6.479c3.435,0,6.769-1.268,9.341-3.548l8.984-7.982c2.582-2.293,4.307-5.412,4.875-8.82l0.125-0.768
			c0.463-2.759-1.663-5.27-4.463-5.27H347.163z"/>
		
			<path style="fill:#BEBEC0;stroke:#2F545C;stroke-width:1.3188;stroke-linecap:round;stroke-linejoin:round;stroke-miterlimit:10;" d="
			M332.6,155.945c-2.262-0.399-4.061,1.876-3.159,3.987l1.953,4.55c1.3,3.034,4.126,5.171,7.402,5.597l29.405,3.809
			c2.118,0.273,3.603-2.035,2.474-3.847l-2.373-3.811c-1.794-2.879-4.748-4.872-8.089-5.456L332.6,155.945z"/>
		<g style="opacity:0.21;">
			<path d="M370.043,238.974h-2.973l-0.121,0.76c-0.57,3.402-2.296,6.525-4.875,8.816l-8.989,7.982
				c-2.567,2.279-5.902,3.549-9.337,3.549h-2.208c-0.037,0.123-0.063,0.246-0.1,0.369c-0.737,2.357,0.786,4.911,3.261,4.911h6.479
				c3.435,0,6.769-1.268,9.341-3.548l8.984-7.982c2.582-2.293,4.307-5.412,4.875-8.82l0.125-0.768
				C374.969,241.484,372.843,238.974,370.043,238.974z"/>
		</g>
		
			<path style="fill:none;stroke:#2F545C;stroke-width:1.3188;stroke-linecap:round;stroke-linejoin:round;stroke-miterlimit:10;" d="
			M268.877,187.157c-2.932-1.162-6.065-1.761-9.222-1.761h-73.324c-3.132,0-6.225,0.794-8.972,2.3l-24.742,13.573
			c-0.335,0.185-0.672,0.466-1.002,0.798c-1.817,1.838-0.638,4.769,1.713,5.843l17.702,8.091c2.861,1.31,5.979,1.988,9.122,1.988
			h57.59c2.984,0,5.667-1.707,7.399-4.135c2.738-3.836,7.645-9.578,14.797-13.848c2.073-1.236,9.184-4.184,12.606-5.581
			c1.225-0.501,2.27-1.368,2.991-2.477c0.578-0.89,0.2-2.08-0.786-2.47L268.877,187.157z"/>
		
			<path style="fill:none;stroke:#2F545C;stroke-width:5.2753;stroke-linecap:round;stroke-linejoin:round;stroke-miterlimit:10;" d="
			M347.163,238.974c-2.802,0-4.893,2.502-4.596,5.286c0.602,5.669,0.453,11.132-1.127,16.19c-0.737,2.357,0.786,4.911,3.261,4.911
			h6.479c3.435,0,6.769-1.268,9.341-3.548l8.984-7.982c2.582-2.293,4.307-5.412,4.875-8.82l0.125-0.768
			c0.463-2.759-1.663-5.27-4.463-5.27H347.163z"/>
		<path style="opacity:0.21;" d="M334.467,252.144c0.007-0.133,0.023-0.263,0.023-0.396c0-17.266-14.243-32.422-32.277-32.422
			c-18.039,0-32.171,14.402-32.171,32.156c0,0.855,0.111,1.713,0,2.587C278.899,222.598,323.169,220.597,334.467,252.144z"/>
		<g>
			<path style="fill:#2F545C;" d="M302.271,224.354c14.852,0,26.934,12.082,26.934,26.933c0,14.85-12.082,26.93-26.934,26.93
				c-14.849,0-26.93-12.08-26.93-26.93C275.341,236.436,287.422,224.354,302.271,224.354 M302.271,219.078
				c-17.788,0-32.205,14.421-32.205,32.208c0,17.788,14.417,32.205,32.205,32.205c17.787,0,32.209-14.417,32.209-32.205
				C334.479,233.499,320.058,219.078,302.271,219.078L302.271,219.078z"/>
		</g>
		<path style="opacity:0.21;" d="M156.602,252.087c0.008-0.133,0.023-0.266,0.023-0.396c0-17.268-13.455-32.146-31.487-32.146
			c-18.042,0-32.844,14.403-32.844,32.157c0,0.855,0.111,1.711,0,2.586C101.151,222.817,145.307,220.54,156.602,252.087z"/>
		<path style="opacity:0.32;fill:#FFFFFF;" d="M206.727,185.396l-31.713,31.907v0.111c1.612,0.371,3.263,0.574,4.924,0.574h19.391
			l32.766-32.593H206.727z"/>
		<polygon style="opacity:0.32;fill:#FFFFFF;" points="239.658,185.396 207.132,217.989 219.093,217.989 251.525,185.396 		"/>
		<g style="opacity:0.21;">
			<path d="M87.619,267.155c-1.146-2.156-1.973-5.1-2.74-7.31c-0.918-2.636-1.504-4.829-4.297-4.829h-5.057
				c0.125,0.354,0.25,0.719,0.382,1.097c0.77,2.213,1.595,5.153,2.741,7.311c1.007,1.895-0.48,4.323-2.631,4.323H55.908
				c1.723,2.321,4.462,3.731,7.396,3.731h21.685C87.139,271.479,88.626,269.05,87.619,267.155z"/>
		</g>
		
			<path style="fill:none;stroke:#2F545C;stroke-width:5.2753;stroke-linecap:round;stroke-linejoin:round;stroke-miterlimit:10;" d="
			M84.881,259.846c-0.92-2.636-1.508-4.829-4.299-4.829H53.881c-2.38,0-3.871,2.568-2.686,4.635l4.111,7.193
			c1.638,2.858,4.703,4.635,7.998,4.635h21.685c2.152,0,3.636-2.43,2.631-4.324C86.471,264.999,85.646,262.056,84.881,259.846z"/>
		<g>
			<path style="fill:#2F545C;" d="M124.402,224.354c14.852,0,26.935,12.082,26.935,26.933c0,14.85-12.083,26.93-26.935,26.93
				c-14.85,0-26.931-12.08-26.931-26.93C97.472,236.436,109.553,224.354,124.402,224.354 M124.402,219.078
				c-17.788,0-32.206,14.421-32.206,32.208c0,17.788,14.418,32.205,32.206,32.205c17.789,0,32.21-14.417,32.21-32.205
				C156.612,233.499,142.191,219.078,124.402,219.078L124.402,219.078z"/>
		</g>
		<path style="fill:none;stroke:#2F545C;stroke-width:2.6377;stroke-miterlimit:10;" d="M268.877,187.157
			c-2.932-1.162-6.065-1.761-9.222-1.761h-73.324c-3.132,0-6.225,0.794-8.972,2.3l-24.742,13.573
			c-0.335,0.185-0.672,0.466-1.002,0.798c-1.817,1.838-0.638,4.769,1.713,5.843l17.702,8.091c2.861,1.31,5.979,1.988,9.122,1.988
			h57.59c2.984,0,5.667-1.707,7.399-4.135c2.738-3.836,7.645-9.578,14.797-13.848c2.073-1.236,9.184-4.184,12.606-5.581
			c1.225-0.501,2.27-1.368,2.991-2.477c0.578-0.89,0.2-2.08-0.786-2.47L268.877,187.157z"/>
	</g>
	<g>
		
			<path style="fill:#DFDFDF;stroke:#2F545C;stroke-width:5.2914;stroke-linecap:round;stroke-linejoin:round;stroke-miterlimit:10;" d="
			M757.286,532.174c0-2.98-2.414-5.396-5.397-5.396H636.649c-2.979,0-5.396,2.416-5.396,5.396v25.389c0,2.978-2.418,5.398-5.4,5.398
			h-32.598c-3.287,0-6.301,1.906-7.711,4.878l-13.781,28.975c-1.451,3.059-4.285,5.263-7.611,5.914l-65.368,13.789
			c-3.069,0.604-5.297,3.31-5.297,6.44l0.003,50.47l3.396,2.504c1.765,1.303,4.303,0.154,4.358-2.039
			c0.102-3.922,0.43-9.271,1.41-13.2c4.048-16.193,21.751-28.9,40.352-28.9c26.749,0,46.231,25.155,39.744,50.951
			c-0.19,0.754-0.278,1.53-0.161,2.298c0.093,0.611,0.607,1.075,1.225,1.075h78.365c0.618,0,1.13-0.464,1.223-1.077
			c0.109-0.69,0.071-1.4-0.105-2.077c-0.835-3.252-1.307-6.656-1.307-10.172c0-22.645,18.352-40.998,40.99-40.998
			c20.996,0,38.299,15.771,40.712,36.116c0.192,1.601,0.29,3.229,0.29,4.882c0,3.88,12.963,2.257,12.963,2.257L757.286,532.174z"/>
		<g style="opacity:0.21;">
			<path d="M581.876,676.395c0,0,0.145,0.569-1.065,5.378c-0.189,0.755-0.277,1.529-0.162,2.298
				c0.096,0.611,0.607,1.074,1.228,1.074h78.364c0.62,0,1.13-0.463,1.223-1.076c0.11-0.69,0.072-1.4-0.104-2.077
				c-0.838-3.252-1.109-5.597-1.119-5.597H581.876z"/>
		</g>
		<g style="opacity:0.21;">
			<path d="M752.002,528.759l-18.578,0.362c2.98,0,5.396,2.417,5.396,5.395l-0.111,115.258c1.254,3.19,3.869,5.423,4.287,8.948
				c0.194,1.601,0.935,5.256,0.935,6.909c0,3.879,11.45,12.098,11.45,12.098l0.121-144.776
				C755.503,529.973,753.887,528.759,752.002,528.759z"/>
		</g>
		
			<path style="fill:none;stroke:#2F545C;stroke-width:5.2914;stroke-linecap:round;stroke-linejoin:round;stroke-miterlimit:10;" d="
			M757.286,532.174c0-2.98-2.414-5.396-5.397-5.396H636.649c-2.979,0-5.396,2.416-5.396,5.396v25.389c0,2.978-2.418,5.398-5.4,5.398
			h-32.598c-3.287,0-6.301,1.906-7.711,4.878l-13.781,28.975c-1.451,3.059-4.285,5.263-7.611,5.914l-65.368,13.789
			c-3.069,0.604-5.297,3.31-5.297,6.44l0.003,50.47l3.396,2.504c1.765,1.303,4.303,0.154,4.358-2.039
			c0.102-3.922,0.43-9.271,1.41-13.2c4.048-16.193,21.751-28.9,40.352-28.9c26.749,0,46.231,25.155,39.744,50.951
			c-0.19,0.754-0.278,1.53-0.161,2.298c0.093,0.611,0.607,1.075,1.225,1.075h78.365c0.618,0,1.13-0.464,1.223-1.077
			c0.109-0.69,0.071-1.4-0.105-2.077c-0.835-3.252-1.307-6.656-1.307-10.172c0-22.645,18.352-40.998,40.99-40.998
			c20.996,0,38.299,15.771,40.712,36.116c0.192,1.601,0.29,3.229,0.29,4.882c0,3.88,12.963,2.257,12.963,2.257L757.286,532.174z"/>
		
			<path style="fill:none;stroke:#2F545C;stroke-width:2.6457;stroke-linecap:round;stroke-linejoin:round;stroke-miterlimit:10;" d="
			M574.961,629.158v-12.122c0-3.671,0.816-7.371,2.361-10.698l13.547-29.246c1.54-3.307,4.888-5.45,8.537-5.45h7.988"/>
		
			<line style="fill:none;stroke:#2F545C;stroke-width:2.6457;stroke-linecap:round;stroke-linejoin:round;stroke-miterlimit:10;" x1="640.598" y1="571.502" x2="626.209" y2="571.502"/>
		
			<path style="fill:none;stroke:#2F545C;stroke-width:1.3228;stroke-linecap:round;stroke-linejoin:round;stroke-miterlimit:10;" d="
			M649.555,584.661c0-2.983-2.416-5.401-5.398-5.401h-40.404c-3.283,0-6.277,1.926-7.649,4.909l-7.146,15.577
			c-1.053,2.294,0.624,4.907,3.149,4.907h52.051c2.982,0,5.398-2.419,5.398-5.396V584.661z"/>
		
			<path style="fill:none;stroke:#2F545C;stroke-width:2.6457;stroke-linecap:round;stroke-linejoin:round;stroke-miterlimit:10;" d="
			M643.844,616.378c0,2.454-1.992,4.444-4.441,4.444h-8.896c-2.452,0-4.443-1.99-4.443-4.444c0-2.457,1.991-4.442,4.443-4.442h8.896
			C641.852,611.936,643.844,613.921,643.844,616.378z"/>
		
			<path style="fill:#DFDFDF;stroke:#2F545C;stroke-width:1.3228;stroke-linecap:round;stroke-linejoin:round;stroke-miterlimit:10;" d="
			M745.99,634.67c1.031,1.034,1.613,2.44,1.613,3.899c0,1.26,1.021,2.279,2.281,2.279h2.418c2.602,0,4.722-2.1,4.75-4.699
			l0.16-15.569c0.027-2.58-2.568-4.361-4.968-3.421l-5.224,2.057c-2.803,1.105-4.654,3.822-4.654,6.83v1.295
			c0,2.372,0.943,4.65,2.619,6.325L745.99,634.67z"/>
		
			<path style="fill:#ADADAD;stroke:#2F545C;stroke-width:1.3228;stroke-linecap:round;stroke-linejoin:round;stroke-miterlimit:10;" d="
			M741.609,684.51c-0.42,2.735,1.809,5.252,4.516,4.673l8.084-1.733c3.443-0.732,5.912-3.785,5.912-7.308v-27.734
			c0-3.334-2.707-6.041-6.046-6.041h-14.563c-2.514,0-3.842,2.813-2.731,5.069c1.241,2.517,2.627,6.123,3.783,11.104
			C742.748,671.962,742.363,679.612,741.609,684.51z"/>
		<g>
			
				<path style="fill:#ADADAD;stroke:#2F545C;stroke-width:5.2914;stroke-linecap:round;stroke-linejoin:round;stroke-miterlimit:10;" d="
				M509.035,651.569c1.161-1.798-0.115-4.178-2.26-4.178h-11.224v35.553l5.651,1.862c2.041,0.666,3.863-1.362,3.281-3.432
				c-0.879-3.134-1.354-6.442-1.354-9.858C503.131,664.158,505.309,657.312,509.035,651.569z"/>
		</g>
		
			<path style="fill:#DFDFDF;stroke:#2F545C;stroke-width:1.3228;stroke-linecap:round;stroke-linejoin:round;stroke-miterlimit:10;" d="
			M493.499,626.765h-2.711c-2.983,0-5.396,2.418-5.396,5.393v15.865c0,2.988,2.413,5.404,5.396,5.404h2.711V626.765z"/>
		<g>
			<g>
				<path style="fill:#B7B7BC;" d="M542.893,701.904c-16.055,0-29.116-13.063-29.116-29.118c0-16.056,13.061-29.118,29.116-29.118
					c16.059,0,29.124,13.063,29.124,29.118C572.017,688.842,558.951,701.904,542.893,701.904z"/>
				<path style="fill:#2F545C;" d="M542.893,646.313c14.6,0,26.479,11.876,26.479,26.473c0,14.597-11.879,26.473-26.479,26.473
					c-14.596,0-26.471-11.876-26.471-26.473C516.422,658.19,528.297,646.313,542.893,646.313 M542.893,641.023
					c-17.543,0-31.762,14.221-31.762,31.764c0,17.546,14.219,31.764,31.762,31.764c17.545,0,31.77-14.218,31.77-31.764
					C574.662,655.243,560.438,641.023,542.893,641.023L542.893,641.023z"/>
			</g>
			
				<path style="fill:#DFDFDF;stroke:#2F545C;stroke-width:2.6457;stroke-linecap:round;stroke-linejoin:round;stroke-miterlimit:10;" d="
				M560.244,672.786c0,9.583-7.767,17.351-17.352,17.351c-9.584,0-17.35-7.768-17.35-17.351c0-9.58,7.766-17.352,17.35-17.352
				C552.477,655.435,560.244,663.206,560.244,672.786z"/>
			
				<path style="fill:#B7B7BC;stroke:#2F545C;stroke-width:1.3228;stroke-linecap:round;stroke-linejoin:round;stroke-miterlimit:10;" d="
				M552.924,672.786c0,5.538-4.488,10.03-10.031,10.03c-5.539,0-10.026-4.492-10.026-10.03c0-5.536,4.487-10.031,10.026-10.031
				C548.435,662.755,552.924,667.25,552.924,672.786z"/>
		</g>
		<g>
			<g>
				
					<ellipse transform="matrix(1 -0.0064 0.0064 1 -4.2979 4.5228)" style="fill:#B7B7BC;" cx="703.469" cy="672.786" rx="29.12" ry="29.118"/>
				<path style="fill:#2F545C;" d="M703.469,646.313c14.598,0,26.475,11.876,26.475,26.473c0,14.597-11.877,26.473-26.475,26.473
					c-14.598,0-26.475-11.876-26.475-26.473C676.994,658.19,688.871,646.313,703.469,646.313 M703.469,641.023
					c-17.543,0-31.766,14.221-31.766,31.764c0,17.546,14.223,31.764,31.766,31.764c17.539,0,31.766-14.218,31.766-31.764
					C735.234,655.243,721.008,641.023,703.469,641.023L703.469,641.023z"/>
			</g>
			
				<path style="fill:#DFDFDF;stroke:#2F545C;stroke-width:2.6457;stroke-linecap:round;stroke-linejoin:round;stroke-miterlimit:10;" d="
				M720.818,672.786c0,9.583-7.768,17.351-17.35,17.351c-9.582,0-17.35-7.768-17.35-17.351c0-9.58,7.768-17.352,17.35-17.352
				C713.051,655.435,720.818,663.206,720.818,672.786z"/>
			
				<path style="fill:#B7B7BC;stroke:#2F545C;stroke-width:1.3228;stroke-linecap:round;stroke-linejoin:round;stroke-miterlimit:10;" d="
				M713.5,672.786c0,5.538-4.492,10.03-10.031,10.03c-5.539,0-10.026-4.492-10.026-10.03c0-5.536,4.487-10.031,10.026-10.031
				C709.008,662.755,713.5,667.25,713.5,672.786z"/>
		</g>
		<path style="opacity:0.21;" d="M573.073,674.106c0.003-0.081,1.318-11.231-6.317-21.07c-3.137-4.041-11.158-11.942-24.035-11.942
			c-17.505,0-31.869,14-30.82,32.622c0.047,0.869,0.377,1.743,0.273,2.634C520.449,644.3,562.519,641.981,573.073,674.106z"/>
		<path style="opacity:0.21;" d="M734.04,674.106c0.005-0.081,1.317-11.231-6.317-21.07c-3.135-4.041-11.158-11.942-24.036-11.942
			c-17.501,0-31.868,14-30.819,32.622c0.049,0.869,0.379,1.743,0.273,2.634C681.416,644.3,723.487,641.981,734.04,674.106z"/>
		<path style="fill:#375F66;" d="M649.555,584.661c0-2.983-2.416-5.401-5.398-5.401h-40.404c-3.283,0-6.277,1.926-7.649,4.909
			l-7.146,15.577c-1.053,2.294,0.624,4.907,3.149,4.907h52.051c2.982,0,5.398-2.419,5.398-5.396V584.661z"/>
		<path style="opacity:0.32;fill:#FFFFFF;" d="M609.029,579.26l-19.801,19.926l-0.257,0.56c-1.055,2.294,0.624,4.907,3.146,4.907
			h17.167l25.527-25.393H609.029z"/>
		<path style="opacity:0.32;fill:#FFFFFF;" d="M644.17,579.26h-1.621l-25.342,25.393h12.172l20.16-20.262
			C649.396,581.536,647.06,579.26,644.17,579.26z"/>
		<g style="opacity:0.21;">
			<path d="M753.896,646.32h-2.815c0.37,0.784,0.594,1.65,0.594,2.572v27.763c0,3.527-2.472,6.582-5.918,7.314l-4.352,0.935
				c-0.156,2.575,1.959,4.83,4.535,4.276l8.096-1.732c3.445-0.735,5.918-3.791,5.918-7.318v-27.76
				C759.953,649.03,757.242,646.32,753.896,646.32z"/>
		</g>
		<g>
			<path style="fill:#2F545C;" d="M542.893,646.313c14.6,0,26.479,11.876,26.479,26.473c0,14.597-11.879,26.473-26.479,26.473
				c-14.596,0-26.471-11.876-26.471-26.473C516.422,658.19,528.297,646.313,542.893,646.313 M542.893,641.023
				c-17.543,0-31.762,14.221-31.762,31.764c0,17.546,14.219,31.764,31.762,31.764c17.545,0,31.77-14.218,31.77-31.764
				C574.662,655.243,560.438,641.023,542.893,641.023L542.893,641.023z"/>
		</g>
		<g>
			<path style="fill:#2F545C;" d="M703.469,646.313c14.598,0,26.475,11.876,26.475,26.473c0,14.597-11.877,26.473-26.475,26.473
				c-14.598,0-26.475-11.876-26.475-26.473C676.994,658.19,688.871,646.313,703.469,646.313 M703.469,641.023
				c-17.543,0-31.766,14.221-31.766,31.764c0,17.546,14.223,31.764,31.766,31.764c17.539,0,31.766-14.218,31.766-31.764
				C735.234,655.243,721.008,641.023,703.469,641.023L703.469,641.023z"/>
		</g>
		
			<path style="fill:none;stroke:#2F545C;stroke-width:2.6457;stroke-linecap:round;stroke-linejoin:round;stroke-miterlimit:10;" d="
			M649.553,571.642c3.501,0,6.35,2.85,6.35,6.353v92.051c0,3.496-2.849,6.349-6.35,6.349h-42.924"/>
		
			<path style="fill:none;stroke:#2F545C;stroke-width:5.2914;stroke-linecap:round;stroke-linejoin:round;stroke-miterlimit:10;" d="
			M741.609,684.51c-0.42,2.735,1.809,5.252,4.516,4.673l8.084-1.733c3.443-0.732,5.912-3.785,5.912-7.308v-27.734
			c0-3.334-2.707-6.041-6.046-6.041h-14.563c-2.514,0-3.842,2.813-2.731,5.069c1.241,2.517,2.627,6.123,3.783,11.104
			C742.748,671.962,742.363,679.612,741.609,684.51z"/>
		<path style="fill:none;stroke:#2F545C;stroke-width:2.6457;stroke-miterlimit:10;" d="M649.555,584.661
			c0-2.983-2.416-5.401-5.398-5.401h-40.404c-3.283,0-6.277,1.926-7.649,4.909l-7.146,15.577c-1.053,2.294,0.624,4.907,3.149,4.907
			h52.051c2.982,0,5.398-2.419,5.398-5.396V584.661z"/>
	</g>
	<g>
		
			<path style="fill:#DFDFDF;stroke:#2F545C;stroke-width:5.2979;stroke-linecap:round;stroke-linejoin:round;stroke-miterlimit:10;" d="
			M376.36,624.882c0,5.157-4.174,9.329-9.328,9.329h-11.066V570.41h11.066c5.154,0,9.328,4.176,9.328,9.329V624.882z"/>
		<path style="opacity:0.21;" d="M376.36,624.882c0,5.157-4.174,9.329-9.328,9.329h-11.066V570.41h11.066
			c5.154,0,9.328,4.176,9.328,9.329V624.882z"/>
		
			<path style="fill:none;stroke:#2F545C;stroke-width:5.2979;stroke-linecap:round;stroke-linejoin:round;stroke-miterlimit:10;" d="
			M376.36,624.882c0,5.157-4.174,9.329-9.328,9.329h-11.066V570.41h11.066c5.154,0,9.328,4.176,9.328,9.329V624.882z"/>
		
			<path style="fill:#DFDFDF;stroke:#2F545C;stroke-width:1.3245;stroke-linecap:round;stroke-linejoin:round;stroke-miterlimit:10;" d="
			M134.554,588.911c0,0-25.748-4.263-33.663-4.966l-8.978-0.2c-5.665,0-10.259,4.59-10.259,10.244v2.889h10.078h49.237
			C140.97,593.049,138.292,589.724,134.554,588.911z"/>
		<polygon style="fill:#2F545C;" points="59.479,615.012 350.243,610.237 350.243,659.546 59.479,659.546 		"/>
		
			<path style="fill:#B7B7BC;stroke:#2F545C;stroke-width:5.2979;stroke-linecap:round;stroke-linejoin:round;stroke-miterlimit:10;" d="
			M352.952,669.887c0,18.305-14.839,33.149-33.151,33.149c-18.304,0-33.149-14.845-33.149-33.149
			c0-18.311,14.846-33.153,33.149-33.153C338.113,636.733,352.952,651.576,352.952,669.887z"/>
		
			<path style="fill:#DFDFDF;stroke:#2F545C;stroke-width:2.649;stroke-linecap:round;stroke-linejoin:round;stroke-miterlimit:10;" d="
			M335.001,669.887c0,8.392-6.808,15.194-15.2,15.194c-8.394,0-15.2-6.803-15.2-15.194c0-8.398,6.807-15.205,15.2-15.205
			C328.193,654.682,335.001,661.488,335.001,669.887z"/>
		
			<path style="fill:#DFDFDF;stroke:#2F545C;stroke-width:5.2979;stroke-linecap:round;stroke-linejoin:round;stroke-miterlimit:10;" d="
			M335.329,548.716H174.933c-7.18,0-13.003,5.817-13.003,13v24.689c0,4.384-3.556,7.94-7.947,7.94H87.048
			c-11.966,0-21.669,9.704-21.669,21.669v16.965h21.669c0-7.18,7.266-13.003,14.447-13.003h41.25
			c7.182,0,13.002,5.823,13.002,13.003v36.907h71.814c20.526,0,60.791-17.071,61.821-37.575c0.352-6.872,6.031-13.78,12.988-13.78
			h34.874c7.174,0,12.998,7.268,12.998,14.448v3.114h11.086v-61.382C361.329,560.357,349.686,548.716,335.329,548.716z"/>
		<g>
			<path style="fill:#2F545C;" d="M345.749,550.77h-16.406c14.357,0,26,10.408,26,24.763v48.681
				c2.191,2.673,4.751,0.904,4.751,0.904V576.14C360.094,561.785,355.124,557.861,345.749,550.77z"/>
		</g>
		
			<path style="fill:#BEBEC0;stroke:#2F545C;stroke-width:1.3245;stroke-linecap:round;stroke-linejoin:round;stroke-miterlimit:10;" d="
			M367.53,622.746h-12.009c0-6.382-5.175-11.559-11.558-11.559h-45.263c-8.775,0-15.89,7.117-15.89,15.894v2.853
			c0,16.354-13.252,29.611-29.611,29.611h-99.318v10.341h101.842c20.535,0,36.536-17.071,37.576-37.575
			c0.348-6.872,6.025-12.335,12.984-12.335h27.651c7.182,0,13.001,5.823,13.001,13.003v10.335c0,2.392,1.934,4.332,4.332,4.332
			h1.815c8.777,0,15.888-7.112,15.888-15.886v-7.569C368.971,623.391,368.324,622.746,367.53,622.746z"/>
		
			<path style="fill:#BEBEC0;stroke:#2F545C;stroke-width:1.3245;stroke-linecap:round;stroke-linejoin:round;stroke-miterlimit:10;" d="
			M98.18,611.188c-11.999,0-21.666,9.787-21.666,21.792l0,0h10.534c0-7.18,7.266-13.003,14.447-13.003h33.609
			c7.179,0,13,5.823,13,13.003v32.571c0,2.39,1.939,4.336,4.334,4.336h5.366v-37.031c0-11.968-9.7-21.668-21.669-21.668H98.18z"/>
		
			<path style="fill:#B7B7BC;stroke:#2F545C;stroke-width:5.2979;stroke-linecap:round;stroke-linejoin:round;stroke-miterlimit:10;" d="
			M144.463,669.887c0,18.305-14.844,33.149-33.149,33.149c-18.309,0-33.151-14.845-33.151-33.149
			c0-18.311,14.843-33.153,33.151-33.153C129.619,636.733,144.463,651.576,144.463,669.887z"/>
		
			<path style="fill:#DFDFDF;stroke:#2F545C;stroke-width:2.649;stroke-linecap:round;stroke-linejoin:round;stroke-miterlimit:10;" d="
			M126.513,669.887c0,8.392-6.807,15.194-15.198,15.194c-8.399,0-15.204-6.803-15.204-15.194c0-8.398,6.805-15.205,15.204-15.205
			C119.706,654.682,126.513,661.488,126.513,669.887z"/>
		<path style="fill:none;stroke:#2F545C;stroke-width:2.649;stroke-linecap:round;stroke-linejoin:round;stroke-miterlimit:10;" d="
			M341.858,600.479c0,1.423-1.148,2.574-2.577,2.574h-5.134c-1.424,0-2.58-1.151-2.58-2.574c0-1.42,1.156-2.574,2.58-2.574h5.134
			C340.71,597.905,341.858,599.06,341.858,600.479z"/>
		
			<path style="fill:#DFDFDF;stroke:#2F545C;stroke-width:1.3245;stroke-linecap:round;stroke-linejoin:round;stroke-miterlimit:10;" d="
			M229.066,587.173c0,0.797-0.644,1.447-1.44,1.447h-55.609c-0.797,0-1.445-0.65-1.445-1.447v-27.862c0-0.8,0.648-1.449,1.445-1.449
			h55.609c0.797,0,1.44,0.649,1.44,1.449V587.173z"/>
		
			<path style="fill:#DFDFDF;stroke:#2F545C;stroke-width:1.3245;stroke-linecap:round;stroke-linejoin:round;stroke-miterlimit:10;" d="
			M293.912,587.173c0,0.797-0.646,1.447-1.442,1.447h-51.873c-0.799,0-1.445-0.65-1.445-1.447v-27.862
			c0-0.8,0.646-1.449,1.445-1.449h51.873c0.797,0,1.442,0.649,1.442,1.449V587.173z"/>
		
			<path style="fill:#DFDFDF;stroke:#2F545C;stroke-width:1.3245;stroke-linecap:round;stroke-linejoin:round;stroke-miterlimit:10;" d="
			M347.817,587.173c0,0.797-0.647,1.447-1.447,1.447h-41.826c-0.799,0-1.442-0.65-1.442-1.447v-27.862
			c0-0.8,0.644-1.449,1.442-1.449h25.936c9.575,0,17.338,7.768,17.338,17.338V587.173z"/>
		<g>
			
				<line style="fill:none;stroke:#2F545C;stroke-width:2.649;stroke-linecap:round;stroke-linejoin:round;stroke-miterlimit:10;" x1="229.066" y1="599.092" x2="229.066" y2="650.527"/>
			
				<line style="fill:none;stroke:#2F545C;stroke-width:2.649;stroke-linecap:round;stroke-linejoin:round;stroke-miterlimit:10;" x1="170.571" y1="650.527" x2="170.571" y2="599.092"/>
			
				<line style="fill:none;stroke:#2F545C;stroke-width:2.649;stroke-linecap:round;stroke-linejoin:round;stroke-miterlimit:10;" x1="239.151" y1="599.092" x2="239.151" y2="649.686"/>
			
				<line style="fill:#DFDFDF;stroke:#2F545C;stroke-width:5.2979;stroke-linecap:round;stroke-linejoin:round;stroke-miterlimit:10;" x1="223.114" y1="599.092" x2="209.858" y2="599.092"/>
			
				<line style="fill:#DFDFDF;stroke:#2F545C;stroke-width:5.2979;stroke-linecap:round;stroke-linejoin:round;stroke-miterlimit:10;" x1="288.466" y1="599.092" x2="275.688" y2="599.092"/>
		</g>
		<path style="fill:#375F66;" d="M229.066,587.173c0,0.797-0.644,1.447-1.44,1.447h-55.609c-0.797,0-1.445-0.65-1.445-1.447v-27.862
			c0-0.8,0.648-1.449,1.445-1.449h55.609c0.797,0,1.44,0.649,1.44,1.449V587.173z"/>
		<path style="fill:#375F66;" d="M293.912,587.173c0,0.797-0.646,1.447-1.442,1.447h-51.873c-0.799,0-1.445-0.65-1.445-1.447
			v-27.862c0-0.8,0.646-1.449,1.445-1.449h51.873c0.797,0,1.442,0.649,1.442,1.449V587.173z"/>
		<path style="fill:#375F66;" d="M347.817,587.173c0,0.797-0.647,1.447-1.447,1.447h-41.826c-0.799,0-1.442-0.65-1.442-1.447
			v-27.862c0-0.8,0.644-1.449,1.442-1.449h25.936c9.575,0,17.338,7.768,17.338,17.338V587.173z"/>
		
			<path style="fill:#ADADAD;stroke:#2F545C;stroke-width:1.3245;stroke-linecap:round;stroke-linejoin:round;stroke-miterlimit:10;" d="
			M69.061,651.8c0,1.587-1.288,2.882-2.886,2.882H46.105c-1.594,0-2.89-1.295-2.89-2.882V635.86c0-1.59,1.296-2.881,2.89-2.881
			h20.069c1.598,0,2.886,1.291,2.886,2.881V651.8z"/>
		
			<path style="fill:#ADADAD;stroke:#2F545C;stroke-width:1.3245;stroke-linecap:round;stroke-linejoin:round;stroke-miterlimit:10;" d="
			M69.122,632.979H49.839v-24.063c0-1.809,1.467-3.281,3.285-3.281h12.721c1.809,0,3.277,1.473,3.277,3.281V632.979z"/>
		<path style="opacity:0.21;" d="M68.669,608.916c0-1.809-1.47-3.281-3.279-3.281h-6.69c1.81,0,3.277,1.473,3.277,3.281v24.063
			h3.744h2.948V608.916z"/>
		<path style="opacity:0.21;" d="M59.028,632.979c1.598,0,2.887,1.291,2.887,2.881V651.8c0,1.587-1.289,2.882-2.887,2.882h3.801
			h2.892c1.598,0,2.887-1.295,2.887-2.882V635.86c0-1.59-1.289-2.881-2.887-2.881h-3.744H59.028z"/>
		<g>
			<path style="opacity:0.32;fill:#FFFFFF;" d="M253.455,557.858l-14.304,14.348v14.966c0,0.797,0.646,1.448,1.445,1.448h7.765
				l30.888-30.762H253.455z"/>
			<path style="opacity:0.32;fill:#FFFFFF;" d="M293.912,559.309c0-0.801-0.646-1.45-1.442-1.45h-5.462l-30.737,30.762h12.178
				l25.464-25.52V559.309z"/>
		</g>
		<g>
			<path style="opacity:0.32;fill:#FFFFFF;" d="M330.479,557.861h-10.233l-17.145,17.195v12.116c0,0.797,0.644,1.447,1.442,1.447
				h10.608l26.645-26.533C338.76,559.458,334.81,557.861,330.479,557.861z"/>
			<path style="opacity:0.32;fill:#FFFFFF;" d="M347.817,575.199c0-3.248-0.91-6.28-2.468-8.881l-22.287,22.302h12.177
				l12.578-12.606V575.199z"/>
		</g>
		<g>
			<path style="opacity:0.32;fill:#FFFFFF;" d="M193.534,557.858l-22.963,23.027v6.286c0,0.797,0.648,1.448,1.445,1.448h16.422
				l30.889-30.762H193.534z"/>
			<path style="opacity:0.32;fill:#FFFFFF;" d="M229.066,559.309c0-0.801-0.644-1.45-1.44-1.45h-0.542l-30.736,30.762h12.177
				l20.542-20.588V559.309z"/>
		</g>
		<g style="opacity:0.21;">
			<path d="M319.487,656.005c14.958,0,27.59,9.908,31.718,23.518c0.926-3.051,1.435-6.283,1.435-9.636
				c0-18.311-14.843-33.153-33.153-33.153c-18.303,0-33.149,14.843-33.149,33.153c0,3.353,0.509,6.585,1.434,9.636
				C291.9,665.913,304.535,656.005,319.487,656.005z"/>
			<path d="M111.003,636.733c-18.311,0-33.153,14.843-33.153,33.153c0,3.353,0.509,6.585,1.435,9.636
				c4.129-13.609,16.762-23.518,31.719-23.518c14.952,0,27.586,9.908,31.715,23.518c0.928-3.051,1.434-6.283,1.434-9.636
				C144.152,651.576,129.309,636.733,111.003,636.733z"/>
		</g>
		
			<path style="fill:none;stroke:#2F545C;stroke-width:5.2979;stroke-linecap:round;stroke-linejoin:round;stroke-miterlimit:10;" d="
			M144.463,669.887c0,18.305-14.844,33.149-33.149,33.149c-18.309,0-33.151-14.845-33.151-33.149
			c0-18.311,14.843-33.153,33.151-33.153C129.619,636.733,144.463,651.576,144.463,669.887z"/>
		
			<path style="fill:none;stroke:#2F545C;stroke-width:5.2979;stroke-linecap:round;stroke-linejoin:round;stroke-miterlimit:10;" d="
			M352.953,669.887c0,18.305-14.846,33.149-33.149,33.149c-18.309,0-33.152-14.845-33.152-33.149
			c0-18.311,14.844-33.153,33.152-33.153C338.107,636.733,352.953,651.576,352.953,669.887z"/>
		<path style="fill:none;stroke:#2F545C;stroke-width:2.649;stroke-miterlimit:10;" d="M229.066,587.173
			c0,0.797-0.644,1.447-1.44,1.447h-55.609c-0.797,0-1.445-0.65-1.445-1.447v-27.862c0-0.8,0.648-1.449,1.445-1.449h55.609
			c0.797,0,1.44,0.649,1.44,1.449V587.173z"/>
		<path style="fill:none;stroke:#2F545C;stroke-width:2.649;stroke-miterlimit:10;" d="M293.912,587.173
			c0,0.797-0.646,1.447-1.442,1.447h-51.873c-0.799,0-1.445-0.65-1.445-1.447v-27.862c0-0.8,0.646-1.449,1.445-1.449h51.873
			c0.797,0,1.442,0.649,1.442,1.449V587.173z"/>
		<path style="fill:none;stroke:#2F545C;stroke-width:2.649;stroke-miterlimit:10;" d="M347.817,587.173
			c0,0.797-0.647,1.447-1.447,1.447h-41.826c-0.799,0-1.442-0.65-1.442-1.447v-27.862c0-0.8,0.644-1.449,1.442-1.449h25.936
			c9.575,0,17.338,7.768,17.338,17.338V587.173z"/>
		
			<path style="fill:none;stroke:#2F545C;stroke-width:1.3245;stroke-linecap:round;stroke-linejoin:round;stroke-miterlimit:10;" d="
			M69.061,651.8c0,1.587-1.288,2.882-2.886,2.882H46.105c-1.594,0-2.89-1.295-2.89-2.882V635.86c0-1.59,1.296-2.881,2.89-2.881
			h20.069c1.598,0,2.886,1.291,2.886,2.881V651.8z"/>
		
			<path style="fill:none;stroke:#2F545C;stroke-width:1.3245;stroke-linecap:round;stroke-linejoin:round;stroke-miterlimit:10;" d="
			M69.122,632.979H49.839v-24.063c0-1.809,1.467-3.281,3.285-3.281h12.721c1.809,0,3.277,1.473,3.277,3.281V632.979z"/>
		<g style="opacity:0.21;">
			<path d="M367.53,623.415h-12.473v7.973c0,6.054-2.385,11.315-7.369,13.992c0.782,1.142,2.091,1.892,3.58,1.892h1.815
				c8.777,0,15.888-7.113,15.888-15.884v-6.527C368.971,624.06,368.324,623.415,367.53,623.415z"/>
		</g>
		<g>
			
				<path style="fill:none;stroke:#2F545C;stroke-width:5.2979;stroke-linecap:round;stroke-linejoin:round;stroke-miterlimit:10;" d="
				M153.882,669.887h101.842c20.535,0,36.536-17.071,37.576-37.575c0.348-6.872,6.025-12.335,12.984-12.335h27.651
				c7.182,0,13.001,5.823,13.001,13.003v10.335c0,2.392,1.934,4.332,4.332,4.332h1.815c8.777,0,15.888-7.112,15.888-15.886v-7.569"
				/>
			
				<path style="fill:none;stroke:#2F545C;stroke-width:5.2979;stroke-linecap:round;stroke-linejoin:round;stroke-miterlimit:10;" d="
				M76.514,632.979L76.514,632.979h10.534c0-7.18,7.266-13.003,14.447-13.003h33.609c7.179,0,13,5.823,13,13.003v32.571
				c0,2.39,1.939,4.336,4.334,4.336h5.366"/>
		</g>
		
			<path style="fill:#ADADAD;stroke:#2F545C;stroke-width:1.3245;stroke-linecap:round;stroke-linejoin:round;stroke-miterlimit:10;" d="
			M66.175,666.99c0,1.601-1.295,2.896-2.893,2.896H46.105c-1.589,0-2.887-1.296-2.887-2.896v-9.421c0-1.593,1.298-2.888,2.887-2.888
			h17.177c1.598,0,2.893,1.295,2.893,2.888V666.99z"/>
		<g>
			<path style="opacity:0.21;" d="M56.139,654.682c1.597,0,2.89,1.295,2.89,2.888v9.421c0,1.601-1.293,2.896-2.89,2.896h6.69
				c1.598,0,2.892-1.296,2.892-2.896v-9.421c0-1.593-1.294-2.888-2.892-2.888h-3.801H56.139z"/>
		</g>
		
			<path style="fill:none;stroke:#2F545C;stroke-width:1.3245;stroke-linecap:round;stroke-linejoin:round;stroke-miterlimit:10;" d="
			M66.175,666.99c0,1.601-1.295,2.896-2.893,2.896H46.105c-1.589,0-2.887-1.296-2.887-2.896v-9.421c0-1.593,1.298-2.888,2.887-2.888
			h17.177c1.598,0,2.893,1.295,2.893,2.888V666.99z"/>
	</g>
	<g>
		<path style="fill:#DFDFDF;" d="M469.438,261.125L469.438,261.125c0.219-18.429,6.168-37.764,22.456-46.383
			c10.398-5.504,22.062-8.568,34.052-8.749l60.935-0.919c6.04-0.097,11.829-2.633,15.991-7.014l35.928-37.836
			c3.341-3.514,8.019-5.583,12.861-5.302c45.544,2.665,87.335,19.919,119.211,50.259l3.31,3.313
			c19.762,19.762,5.76,53.575-22.193,53.575H637.073L469.438,261.125z"/>
		<g>
			<path style="opacity:0.21;" d="M779.162,249.186c6.72-11.488,7.864-27.049-3.255-38.166l-3.309-3.311
				c-31.876-30.341-74.815-49.055-120.36-51.721c-1.434-0.084-3.276,0.939-4.65,1.246c41.301,1.422,81.852,21.271,112.533,50.475
				l3.309,3.311c11.023,11.022,8.756,26.414,3.953,37.876l-0.932,1.809l8.438,3.404L779.162,249.186z"/>
		</g>
		
			<path style="fill:none;stroke:#2F545C;stroke-width:5.2789;stroke-linecap:round;stroke-linejoin:round;stroke-miterlimit:10;" d="
			M469.438,261.125L469.438,261.125c0.219-18.429,6.168-37.764,22.456-46.383c10.398-5.504,22.062-8.568,34.052-8.749l60.935-0.919
			c6.04-0.097,11.829-2.633,15.991-7.014l35.928-37.836c3.341-3.514,8.019-5.583,12.861-5.302
			c45.544,2.665,87.335,19.919,119.211,50.259l3.31,3.313c19.762,19.762,5.76,53.575-22.193,53.575H637.073L469.438,261.125z"/>
		
			<path style="fill:#BEBEC0;stroke:#2F545C;stroke-width:2.6395;stroke-linecap:round;stroke-linejoin:round;stroke-miterlimit:10;" d="
			M781.664,257.65c0,3.836-3.107,6.945-6.947,6.945H470.384c-3.834,0-6.943-3.109-6.943-6.945c0-3.836,3.109-6.944,6.943-6.944
			h304.333C778.557,250.706,781.664,253.814,781.664,257.65z"/>
		<g>
			<path style="opacity:0.21;" d="M774.871,250.704h-12.902c3.838,0,6.943,3.109,6.943,6.944c0,3.836-3.106,6.946-6.943,6.946
				h12.902c3.836,0,6.944-3.11,6.944-6.946C781.815,253.814,778.707,250.704,774.871,250.704z"/>
		</g>
		
			<path style="fill:none;stroke:#2F545C;stroke-width:2.6395;stroke-linecap:round;stroke-linejoin:round;stroke-miterlimit:10;" d="
			M781.664,257.65c0,3.836-3.107,6.945-6.947,6.945H470.384c-3.834,0-6.943-3.109-6.943-6.945c0-3.836,3.109-6.944,6.943-6.944
			h304.333C778.557,250.706,781.664,253.814,781.664,257.65z"/>
		
			<path style="fill:#B7B7BC;stroke:#2F545C;stroke-width:5.2789;stroke-linecap:round;stroke-linejoin:round;stroke-miterlimit:10;" d="
			M759.252,247.232c0,19.182-15.551,34.725-34.727,34.725c-19.182,0-34.729-15.543-34.729-34.725
			c0-19.178,15.547-34.727,34.729-34.727C743.701,212.506,759.252,228.055,759.252,247.232z"/>
		
			<path style="fill:#B7B7BC;stroke:#2F545C;stroke-width:5.2789;stroke-linecap:round;stroke-linejoin:round;stroke-miterlimit:10;" d="
			M558.31,247.391c0,19.176-15.551,34.727-34.731,34.727c-19.179,0-34.724-15.551-34.724-34.727
			c0-19.182,15.545-34.727,34.724-34.727C542.76,212.664,558.31,228.209,558.31,247.391z"/>
		
			<path style="fill:#DFDFDF;stroke:#2F545C;stroke-width:2.6395;stroke-linecap:round;stroke-linejoin:round;stroke-miterlimit:10;" d="
			M745.359,247.232c0,11.505-9.332,20.838-20.834,20.838c-11.512,0-20.838-9.333-20.838-20.838c0-11.508,9.326-20.836,20.838-20.836
			C736.027,226.396,745.359,235.725,745.359,247.232z"/>
		
			<path style="fill:#DFDFDF;stroke:#2F545C;stroke-width:2.6395;stroke-linecap:round;stroke-linejoin:round;stroke-miterlimit:10;" d="
			M544.414,247.391c0,11.506-9.328,20.836-20.835,20.836c-11.51,0-20.834-9.33-20.834-20.836c0-11.506,9.324-20.84,20.834-20.84
			C535.086,226.551,544.414,235.885,544.414,247.391z"/>
		
			<path style="fill:#BEBEC0;stroke:#2F545C;stroke-width:1.3197;stroke-linecap:round;stroke-linejoin:round;stroke-miterlimit:10;" d="
			M474.964,242.496c4.442,0,8.05-3.604,8.05-8.05c0-3.196-1.866-5.944-4.563-7.25c-2.898,4.418-5.008,9.424-6.453,14.726
			C472.916,242.293,473.914,242.496,474.964,242.496z"/>
		
			<line style="fill:none;stroke:#2F545C;stroke-width:2.6395;stroke-linecap:round;stroke-linejoin:round;stroke-miterlimit:10;" x1="568.367" y1="217.149" x2="568.367" y2="242.626"/>
		
			<line style="fill:none;stroke:#2F545C;stroke-width:2.6395;stroke-linecap:round;stroke-linejoin:round;stroke-miterlimit:10;" x1="573.943" y1="222.523" x2="573.943" y2="237.246"/>
		
			<line style="fill:none;stroke:#2F545C;stroke-width:2.6395;stroke-linecap:round;stroke-linejoin:round;stroke-miterlimit:10;" x1="579.291" y1="226.082" x2="579.291" y2="233.693"/>
		<path style="fill:#375F66;" d="M617.701,205.636c-3.791,0.007-5.74-4.541-3.117-7.278c9.664-10.094,25.931-27.078,25.931-27.078
			c2.548-2.686,6.12-4.266,9.816-4.051c31.169,1.824,60.032,12.588,83.21,31.48c2.773,2.258,1.113,6.721-2.461,6.727
			L617.701,205.636z"/>
		<path style="opacity:0.32;fill:#FFFFFF;" d="M677.938,171.295l-34.335,34.341l20.167-0.034l29.838-29.603
			C688.509,174.15,683.277,172.576,677.938,171.295z"/>
		<path style="opacity:0.32;fill:#FFFFFF;" d="M698.055,177.697l-27.978,27.891l9.64-0.014l24.996-25.021
			C702.522,179.542,700.297,178.596,698.055,177.697z"/>
		
			<path style="fill:none;stroke:#2F545C;stroke-width:1.3197;stroke-linecap:round;stroke-linejoin:round;stroke-miterlimit:10;" d="
			M617.701,205.636c-3.791,0.007-5.74-4.541-3.117-7.278c9.664-10.094,25.931-27.078,25.931-27.078
			c2.548-2.686,6.12-4.266,9.816-4.051c31.169,1.824,60.032,12.588,83.21,31.48c2.773,2.258,1.113,6.721-2.461,6.727
			L617.701,205.636z"/>
		
			<path style="fill:#DFDFDF;stroke:#2F545C;stroke-width:1.3197;stroke-linecap:round;stroke-linejoin:round;stroke-miterlimit:10;" d="
			M761.774,224.5c0,2.967,2.402,5.369,5.37,5.369h16.274c-0.066-3.612-0.774-7.244-2.174-10.736h-14.1
			C764.177,219.133,761.774,221.537,761.774,224.5z"/>
		<path style="opacity:0.21;" d="M758.887,244.758c0.008-0.135,0.025-0.26,0.025-0.396c0-17.623-15.356-31.902-34.296-31.902
			c-18.933,0-34.29,14.279-34.29,31.902c0,0.848-0.071,1.713-0.188,2.583C699.418,215.785,746.992,213.365,758.887,244.758z"/>
		<path style="opacity:0.21;" d="M557.947,244.758c0.007-0.135,0.021-0.26,0.021-0.396c0-17.623-15.357-31.902-34.295-31.902
			c-18.934,0-34.287,14.279-34.287,31.902c0,0.848-0.072,1.713-0.191,2.583C498.478,215.785,546.051,213.365,557.947,244.758z"/>
		
			<path style="fill:none;stroke:#2F545C;stroke-width:5.2789;stroke-linecap:round;stroke-linejoin:round;stroke-miterlimit:10;" d="
			M558.31,247.391c0,19.176-15.551,34.727-34.731,34.727c-19.179,0-34.724-15.551-34.724-34.727
			c0-19.182,15.545-34.727,34.724-34.727C542.76,212.664,558.31,228.209,558.31,247.391z"/>
		
			<path style="fill:none;stroke:#2F545C;stroke-width:5.2789;stroke-linecap:round;stroke-linejoin:round;stroke-miterlimit:10;" d="
			M759.252,247.232c0,19.182-15.551,34.725-34.727,34.725c-19.182,0-34.729-15.543-34.729-34.725
			c0-19.178,15.547-34.727,34.729-34.727C743.701,212.506,759.252,228.055,759.252,247.232z"/>
		<path style="fill:none;stroke:#2F545C;stroke-width:2.6395;stroke-miterlimit:10;" d="M617.701,205.636
			c-3.791,0.007-5.74-4.541-3.117-7.278c9.664-10.094,25.931-27.078,25.931-27.078c2.548-2.686,6.12-4.266,9.816-4.051
			c31.169,1.824,60.032,12.588,83.21,31.48c2.773,2.258,1.113,6.721-2.461,6.727L617.701,205.636z"/>
		
			<path style="fill:#DFDFDF;stroke:#2F545C;stroke-width:1.3197;stroke-linecap:round;stroke-linejoin:round;stroke-miterlimit:10;" d="
			M637.305,196.167c0,5.228-4.24,9.469-9.473,9.469H607.63c-2.096,0-3.786-1.696-3.786-3.79v-11.361c0-2.094,1.69-3.788,3.786-3.788
			h20.202C633.064,186.696,637.305,190.932,637.305,196.167z"/>
		<g style="opacity:0.21;">
			<path d="M627.637,186.696h-7.064c5.235,0,9.476,4.235,9.476,9.471c0,5.228-4.24,9.469-9.476,9.469h7.064
				c5.234,0,9.475-4.241,9.475-9.469C637.111,190.932,632.871,186.696,627.637,186.696z"/>
		</g>
		<g>
			
				<path style="fill:none;stroke:#2F545C;stroke-width:1.3197;stroke-linecap:round;stroke-linejoin:round;stroke-miterlimit:10;" d="
				M637.305,196.167c0,5.228-4.24,9.469-9.473,9.469H607.63c-2.096,0-3.786-1.696-3.786-3.79v-11.361
				c0-2.094,1.69-3.788,3.786-3.788h20.202C633.064,186.696,637.305,190.932,637.305,196.167z"/>
		</g>
	</g>
</g>
</svg>
