<?xml version="1.0" encoding="iso-8859-1"?>
<!-- Uploaded to: SVG Repo, www.svgrepo.com, Generator: SVG Repo Mixer Tools -->
<svg version="1.1" id="Layer_1" xmlns="http://www.w3.org/2000/svg" xmlns:xlink="http://www.w3.org/1999/xlink" 
	 viewBox="0 0 512 512" xml:space="preserve">
<rect x="89.043" y="66.783" style="fill:#6E6057;" width="333.913" height="367.304"/>
<rect x="256" y="66.783" style="fill:#615349;" width="166.957" height="367.304"/>
<rect x="122.435" y="100.174" style="fill:#BDDBFF;" width="267.13" height="300.522"/>
<rect x="256" y="100.174" style="fill:#9BC9FF;" width="133.565" height="300.522"/>
<g>
	<path style="fill:#6E6057;" d="M89.043,400.696v61.217c0,27.619,22.468,50.087,50.087,50.087H372.87
		c27.619,0,50.087-22.468,50.087-50.087v-61.217H89.043z"/>
	<path style="fill:#6E6057;" d="M372.87,0H139.13c-27.619,0-50.087,22.468-50.087,50.087v50.087h333.913V50.087
		C422.957,22.468,400.489,0,372.87,0z"/>
</g>
<g>
	<path style="fill:#615349;" d="M256,512h116.87c27.619,0,50.087-22.468,50.087-50.087v-61.217H256V512z"/>
	<path style="fill:#615349;" d="M372.87,0H256v100.174h166.957V50.087C422.957,22.468,400.489,0,372.87,0z"/>
</g>
<path style="fill:#FF5023;" d="M256,367.304c-5.978,0-11.489-3.19-14.467-8.37l-60.337-104.908
	c-0.217-0.381-0.424-0.761-0.609-1.158c-5.348-11.25-8.065-23.304-8.065-35.826c0-46.032,37.446-83.478,83.478-83.478
	s83.478,37.446,83.478,83.478c0,11.592-2.337,22.821-6.934,33.369c-0.239,0.56-0.522,1.097-0.815,1.625l-61.24,106.87
	c-2.978,5.19-8.5,8.391-14.478,8.397H256z"/>
<circle style="fill:#C5F0FD;" cx="256" cy="217.043" r="16.696"/>
<path style="fill:#CD2A00;" d="M256.011,367.304c5.978-0.006,11.5-3.207,14.478-8.397l61.24-106.87
	c0.294-0.528,0.577-1.065,0.815-1.625c4.597-10.548,6.934-21.777,6.934-33.369c0-46.032-37.446-83.478-83.478-83.478v233.739
	H256.011z"/>
<path style="fill:#A4E5FD;" d="M272.696,217.043c0-9.22-7.475-16.696-16.696-16.696v33.391
	C265.22,233.739,272.696,226.264,272.696,217.043z"/>
</svg>